<?xml version="1.0" standalone="no"?><!DOCTYPE svg PUBLIC "-//W3C//DTD SVG 1.1//EN" "http://www.w3.org/Graphics/SVG/1.1/DTD/svg11.dtd"><svg t="1589266937506" class="icon" viewBox="0 0 1024 1024" version="1.1" xmlns="http://www.w3.org/2000/svg" p-id="2065" xmlns:xlink="http://www.w3.org/1999/xlink" width="200" height="200"><defs><style type="text/css"></style></defs><path d="M440.970017 160.696765c-33.159791 0-60.139965-26.997983-60.139965-60.175582v-40.336696c0-33.186504 26.980174-60.184487 60.139965-60.184487 33.159791 0 60.139965 26.997983 60.139966 60.175583v40.336695c0 33.186504-26.980174 60.184487-60.139966 60.184487M892.589635 422.876383a60.166678 60.166678 0 0 1-52.179478-30.069983c-16.5888-28.73433-6.713878-65.616139 22.002643-82.204939l34.922852-20.177252a60.193391 60.193391 0 0 1 82.151513 22.029356c16.579896 28.73433 6.704974 65.616139-22.011548 82.196035l-34.922852 20.177252a59.730365 59.730365 0 0 1-29.96313 8.049531M703.14073 231.753461a59.721461 59.721461 0 0 1-29.96313-8.094052c-28.725426-16.5888-38.591443-53.461704-22.020452-82.196035l20.168348-34.940661a59.721461 59.721461 0 0 1 36.507826-28.039791 59.721461 59.721461 0 0 1 45.643687 6.010435c28.716522 16.597704 38.591443 53.470609 22.002643 82.204939l-20.159443 34.940661a59.748174 59.748174 0 0 1-36.507826 28.039791 60.442713 60.442713 0 0 1-15.671653 2.074713" fill="#FF0098" p-id="2066"></path><path d="M223.855304 879.108452c-40.951096-55.759026-109.167304-156.191165-155.060313-257.869913-39.250365 149.753322-50.158191 333.378783 74.921183 384.997287 58.198817 24.006122 143.083965 15.662748 232.252104-14.941496-62.980452-23.498574-117.929183-65.616139-152.121878-112.185878M736.166957 500.228452c29.135026 45.688209 41.912765 92.142191 44.343652 136.637218l0.231513-0.765774C845.68153 404.025878 590.0288 295.17913 590.0288 295.17913c-126.388313-58.376904-228.877357-52.57127-308.802783-8.761878 168.265461 5.7344 370.723617 81.706296 454.94094 213.793391" fill="#008CFF" p-id="2067"></path><path d="M280.9856 287.040557C194.675757 284.102122 117.341496 299.631304 69.632 335.578157c-74.369113 56.017252-50.968487 171.47993 0.445217 285.366539C84.341983 566.41447 102.4 516.372035 119.015513 478.831304 155.345252 396.768835 209.020661 326.495722 280.994504 287.031652" fill="#FF0098" p-id="2068"></path><path d="M377.50873 991.365565c96.879304 36.133843 212.769391 28.164452 301.323131-75.722574 0 0 109.924174-127.688348 101.723269-277.797843-43.203896 152.620522-231.085635 294.493496-403.0464 353.520417" fill="#FF0098" p-id="2069"></path><path d="M279.667757 285.696c-71.964939 39.446261-125.640348 109.728278-161.970087 191.790748-16.615513 37.54073-34.664626 87.59207-48.956105 142.113391 45.893009 101.687652 114.118122 202.128696 155.051409 257.878818 34.192696 46.569739 89.141426 88.687304 152.121878 112.185878 171.960765-59.026922 359.842504-200.899896 403.037496-353.529322-2.430887-44.486122-15.208626-90.949009-44.343652-136.646122-84.208417-132.087096-286.675478-208.058991-454.940939-213.793391" fill="#1B1BA5" p-id="2070"></path><path d="M346.690783 452.599096l271.270956 156.716521c20.248487 11.691409 20.248487 40.933287 0 52.624696l-271.270956 156.716522c-20.239583 11.691409-45.545739-2.938435-45.54574-26.321252V478.911443c0-23.391722 25.306157-38.003757 45.54574-26.312347" fill="#FFFFFF" p-id="2071"></path></svg>